PathFileType	4	(X/Y/Z)	E:\3-PhD\Data\MocapData\ElaboratedData\009\pre\dynamicElaborations\Run_baseline3\Run_baseline3.trc
DataRate	CameraRate	NumFrames	NumMarkers	Units	OrigDataRate	DataStartFrame
200	200	4	54	mm	200	687
Frame#	Time	FHD			LBHD			RBHD			C7			T10			CLAV			LSHO			LUUPA			LMUPA			LDUPA			LLEP			LMEP			LRAD			LUL			LRFIN			RSHO			RUPA1			RMUPA			RDUPA			RLEP			RMEP			RRAD			RUL			RUFIN			RASI			USACR			LSACR			RSACR			LTHI1			LTHI2			LTHI3			LTHI4			LTIB1			LTIB2			LTIB3			LTIB4			LLMAL			LHEE			LMT1			LMT2			RTHI			RTHI2			RTHI3			RTHI4			RLFC			RTIB1			RTIB2			RTIB3			RTIB4			RLMAL			RHEE			RMT1			RMT2			RMT5		
		X1	Y1	Z1	X2	Y2	Z2	X3	Y3	Z3	X4	Y4	Z4	X5	Y5	Z5	X6	Y6	Z6	X7	Y7	Z7	X8	Y8	Z8	X9	Y9	Z9	X10	Y10	Z10	X11	Y11	Z11	X12	Y12	Z12	X13	Y13	Z13	X14	Y14	Z14	X15	Y15	Z15	X16	Y16	Z16	X17	Y17	Z17	X18	Y18	Z18	X19	Y19	Z19	X20	Y20	Z20	X21	Y21	Z21	X22	Y22	Z22	X23	Y23	Z23	X24	Y24	Z24	X25	Y25	Z25	X26	Y26	Z26	X27	Y27	Z27	X28	Y28	Z28	X29	Y29	Z29	X30	Y30	Z30	X31	Y31	Z31	X32	Y32	Z32	X33	Y33	Z33	X34	Y34	Z34	X35	Y35	Z35	X36	Y36	Z36	X37	Y37	Z37	X38	Y38	Z38	X39	Y39	Z39	X40	Y40	Z40	X41	Y41	Z41	X42	Y42	Z42	X43	Y43	Z43	X44	Y44	Z44	X45	Y45	Z45	X46	Y46	Z46	X47	Y47	Z47	X48	Y48	Z48	X49	Y49	Z49	X50	Y50	Z50	X51	Y51	Z51	X52	Y52	Z52	X53	Y53	Z53	X54	Y54	Z54	

722	3.605000	-142.754210	1386.991451	906.962143	-240.415866	1406.341586	738.397383	-278.097724	1382.137762	856.764387	-322.598220	1286.830945	767.268700	-550.853389	1038.174042	666.846590	-251.130585	1142.616285	763.838990	-217.480885	1238.643739	650.865462	-145.545201	1139.183473	511.110856	-107.894762	1118.404161	530.508734	-108.527951	1090.833809	478.259573	-52.276944	995.822232	423.293957	-84.980465	934.005226	456.488550	92.304900	1001.534471	634.035920	143.190924	965.475974	593.244101	135.930928	1055.155503	643.706747	-312.393440	1162.829068	929.433619	-483.898120	1087.739130	953.992917	-491.748875	1048.089887	929.550945	-547.721459	1061.674147	946.897587	-673.787825	1010.139808	907.859531	-676.044605	1045.314169	842.126689	-628.326493	778.686729	780.915187	-698.809010	781.092801	784.948999	-632.964737	707.326336	810.240933	-449.605898	798.115316	710.843786	-595.634513	944.378246	626.070922	-594.990763	928.174169	587.380674	-607.975986	903.681525	638.490086	-466.577777	719.976906	328.005288	-449.251092	640.739419	301.501656	-410.328637	625.331653	321.976536	-487.454044	599.198114	277.473930	-569.644053	322.559805	181.323003	-625.749466	350.803228	119.849294	-605.523709	315.852189	136.741892	-658.746991	248.478863	126.499985	-783.023135	187.105592	41.891031	-876.381446	190.476598	54.496389	-718.776567	44.954156	86.566130	-706.368384	58.516848	42.811480	-418.003339	597.969742	764.475871	-360.248512	589.984636	792.797988	-341.252426	617.602325	803.927022	-301.552821	529.752022	771.915602	-206.267962	483.073843	774.818240	-47.874751	342.511825	701.683753	-82.079501	253.539950	652.912158	-37.715906	264.719260	665.784758	7.479185	250.104861	635.054511	-5.927989	151.637139	580.573787	-0.445392	134.949159	483.912267	155.865164	169.514458	644.232312	131.099044	146.554721	665.631440	79.335954	95.977032	664.658075	
723	3.610000	-122.409475	1391.498576	922.466007	-219.408482	1410.475306	753.525385	-257.321625	1386.156074	871.703161	-300.264004	1290.385436	780.452229	-525.827931	1040.950805	675.615156	-228.306332	1146.907067	778.259131	-195.402094	1241.199150	660.401050	-125.125533	1142.999115	521.325966	-87.677027	1120.705210	539.146385	-90.240111	1094.691891	486.180772	-38.091823	999.671444	427.394757	-72.446293	937.947968	458.721790	109.233121	993.370646	636.318200	158.283983	956.741127	593.660710	154.749702	1045.063155	647.057091	-293.538238	1166.739725	942.594128	-465.054400	1091.803402	964.663256	-472.543020	1052.000553	940.399975	-528.733924	1065.693835	956.803871	-653.788809	1013.407496	916.024858	-655.009699	1048.153442	850.010317	-601.374595	781.824697	791.472030	-671.995320	782.912273	794.215526	-605.232643	710.478873	821.046299	-425.969159	800.321634	720.842269	-569.986900	947.964527	634.115614	-568.883206	931.912507	595.289436	-582.804967	907.186183	646.033420	-442.298936	724.085952	338.241940	-427.660411	643.898626	311.998621	-389.643094	627.127251	333.337273	-466.985089	604.058491	287.332136	-556.224791	329.340029	189.502874	-612.040900	358.489686	128.018393	-591.837406	323.331662	144.412304	-645.215463	256.124043	132.967699	-769.439109	195.987905	46.973582	-861.517279	204.370832	61.208115	-715.678381	46.204827	88.110262	-702.610182	60.293793	44.725670	-394.371024	597.302714	770.799624	-336.728005	588.177830	799.056825	-317.451822	615.308077	810.773871	-278.594680	527.796837	777.323465	-184.455718	480.616562	781.244697	-26.367351	339.528375	708.682588	-60.623889	250.284705	660.323279	-16.283791	261.433121	673.180318	28.931283	246.526064	642.631120	15.289049	147.902053	588.764208	20.601274	131.108799	492.047662	177.704420	164.482160	651.750558	152.921983	141.525877	673.190476	100.967728	91.153843	672.252952	
724	3.615000	-102.084330	1395.861478	937.765727	-198.169904	1414.304949	768.315966	-236.525019	1390.005376	886.286669	-277.756299	1293.761143	793.440073	-500.779764	1043.679024	684.513628	-205.472823	1150.971502	792.660575	-173.233872	1243.296274	669.482420	-104.893189	1146.544565	531.463968	-67.663239	1122.723360	547.725273	-72.229804	1098.370593	494.089236	-24.250180	1003.524508	431.698702	-60.379298	942.095908	461.235557	125.689967	984.778253	638.117098	172.670383	947.597708	593.522012	173.156276	1034.313922	649.816206	-274.726961	1170.598838	955.588856	-446.213778	1095.664499	975.159665	-453.290690	1055.661825	951.142367	-509.693227	1069.412613	966.579302	-633.580516	1016.157443	924.158684	-633.855710	1050.373560	857.876333	-574.106464	784.416676	802.669965	-644.802451	784.084580	804.214012	-577.102810	713.225004	832.797001	-402.494163	802.310294	731.125101	-544.425595	951.432941	642.482442	-542.911108	935.529160	603.540019	-557.729271	910.592132	653.947771	-417.649548	727.868967	348.673550	-405.404268	646.783014	322.577761	-368.176203	628.941788	344.769165	-445.531724	608.583203	297.389957	-541.068895	335.884129	197.854275	-596.722278	365.960145	136.604484	-576.523128	330.575958	152.426129	-630.203172	263.622074	139.956455	-754.635455	205.064717	52.799276	-845.191900	218.438395	69.124971	-711.583754	48.590131	90.361037	-697.957200	62.895645	47.194192	-370.831927	596.758789	777.338336	-313.272541	586.519429	805.466288	-293.684554	613.120429	817.667175	-255.796115	525.913939	782.850998	-162.850942	478.118895	787.546712	-5.774908	336.166368	714.847031	-40.503203	246.931933	666.725409	3.876491	257.866608	679.570006	48.974258	242.580725	649.048575	34.603958	143.991418	595.549954	39.499712	127.315271	498.752318	197.772596	158.617510	657.579581	172.940596	135.711246	679.074345	120.645612	85.713957	678.116622	
725	3.620000	-81.733384	1400.057189	952.816120	-176.669512	1417.798822	782.735969	-215.672991	1393.679151	900.490487	-255.078261	1296.941646	806.242230	-475.743620	1046.346291	693.553596	-182.641241	1154.761879	807.016303	-150.919229	1244.928633	678.183752	-84.821749	1149.842039	541.533126	-47.832699	1124.471761	556.278055	-54.456952	1101.892659	502.014980	-10.697174	1007.395402	436.257841	-48.708574	946.472921	464.112894	141.668810	975.791070	639.413683	186.327016	938.113192	592.851130	191.122030	1022.946151	651.958713	-255.901942	1174.365523	968.405252	-427.334683	1099.298301	985.476237	-433.959569	1059.050257	961.765011	-490.570392	1072.816743	976.214268	-613.143213	1018.379621	932.276261	-612.544968	1051.955845	865.718527	-546.517036	786.487403	814.529796	-617.225115	784.643646	814.933729	-548.633554	715.603888	845.529404	-379.204325	804.087157	741.653426	-518.993905	954.755268	651.185197	-517.114766	938.988167	612.158361	-532.778437	913.877020	662.260896	-392.699551	731.246521	359.253843	-382.507396	649.284214	333.170905	-345.910357	630.718276	356.208842	-423.097510	612.650597	307.581716	-524.200157	342.033644	206.328086	-579.759614	373.099280	145.521238	-559.605721	337.453732	160.725599	-613.800622	270.895761	147.445667	-738.766163	214.395612	59.400549	-827.568785	232.609156	78.209217	-706.260447	52.308761	93.477053	-692.259220	66.533397	50.354913	-347.464889	596.414220	784.143261	-289.966809	585.082413	812.080831	-270.018055	611.112031	824.626172	-233.278620	524.131882	788.544600	-141.536466	475.539488	793.689669	13.878038	332.382998	720.137401	-21.709481	243.442675	672.074641	22.769722	253.987095	684.907468	67.625601	238.264460	654.275097	52.074413	139.900126	600.871614	56.319145	123.586767	503.975118	216.106229	151.954526	661.638584	191.203245	129.145083	683.214365	138.402999	79.711211	682.215097	
